#!OML:ASF H:\Terrain\Walking\May29\JustinRory\rory.ASF
:FULLY-SPECIFIED
:DEGREES
1136
root 17.7034 10.1879 1.67349 -367.929 -79.2776 343.459
lowerback 34.8196 0.272602 -13.236
upperback 17.3354 -6.00306 -2.03194
thorax 2.61943 -4.92453 6.26798
lowerneck 7.15131 -16.8542 -15.7953
upperneck 17.2144 -26.4998 14.8191
head 8.33277 -13.328 5.1221
rclavicle 3.81667e-014 3.33958e-014
rhumerus -56.1792 -41.2453 -18.7853
rradius 142.472
rwrist -39.1108
rhand 7.44663 20.1364
rfingers 7.12502
rthumb 32.7007 -6.92652
lclavicle 3.81667e-014 3.33958e-014
lhumerus -22.7496 -31.9809 47.5402
lradius 101.352
lwrist 4.67423
lhand -34.0704 8.11284
lfingers 7.12502
lthumb -7.24754 -322.031
rfemur -69.0294 -7.74574 17.2537
rtibia 110.477
rfoot -11.9439 4.27471
rtoes 21.9246
lfemur -67.8473 23.5616 0.813151
ltibia 105.78
lfoot -3.09073 -18.0981
ltoes -8.84728
1137
root 17.707 10.1983 1.68392 -366.206 -79.0665 341.637
lowerback 35.0683 0.154511 -12.9672
upperback 17.3788 -6.10932 -1.89527
thorax 2.57867 -4.97279 6.31462
lowerneck 7.15188 -16.8668 -15.9043
upperneck 17.0684 -26.4644 14.7623
head 8.28394 -13.3166 5.12469
rclavicle 3.02153e-014 -7.95139e-015
rhumerus -57.1177 -41.8246 -17.229
rradius 141.958
rwrist -39.6715
rhand 2.59684 18.7575
rfingers 7.12502
rthumb 28.0752 -9.16149
lclavicle 3.02153e-014 -7.95139e-015
lhumerus -22.7862 -32.0413 47.5194
lradius 101.568
lwrist 4.67768
lhand -33.9889 8.1897
lfingers 7.12502
lthumb -7.16884 -321.952
rfemur -68.7792 -7.97789 17.535
rtibia 110.342
rfoot -11.9649 4.20518
rtoes 21.2551
lfemur -67.9045 23.3084 1.06563
ltibia 105.763
lfoot -3.4379 -17.9453
ltoes -7.06617
1138
root 17.7091 10.2076 1.68782 -365.06 -79.1099 340.394
lowerback 35.2513 0.208744 -12.7734
upperback 17.4223 -6.0227 -1.91893
thorax 2.52202 -4.91873 6.17689
lowerneck 7.1964 -16.8762 -15.7056
upperneck 16.9277 -26.4669 14.8607
head 8.21587 -13.3107 5.14079
rclavicle -1.08934e-013 -3.02153e-014
rhumerus -58.341 -42.2446 -16.0164
rradius 141.614
rwrist -40.0065
rhand -2.34514 17.2978
rfingers 7.12502
rthumb 23.3423 -11.3069
lclavicle -1.08934e-013 -3.02153e-014
lhumerus -22.6499 -32.3227 47.1741
lradius 101.846
lwrist 4.82162
lhand -34.1858 8.27699
lfingers 7.12502
lthumb -7.35892 -321.871
rfemur -68.5948 -7.91648 17.7454
rtibia 110.212
rfoot -11.8396 4.26961
rtoes 21.5551
lfemur -67.7809 23.3635 1.30986
ltibia 105.72
lfoot -3.3256 -18.0623
ltoes -10.9362
1139
root 17.7124 10.2178 1.68767 -364.814 -79.2424 340.002
lowerback 35.4921 0.316058 -12.5988
upperback 17.4602 -5.89573 -2.12414
thorax 2.41974 -4.83182 5.84833
lowerneck 7.19562 -16.8699 -15.4042
upperneck 16.9463 -26.5048 15.0653
head 8.21676 -13.3124 5.16499
rclavicle 1.35174e-014 -4.13472e-014
rhumerus -59.5967 -42.6834 -14.9821
rradius 140.998
rwrist -40.1671
rhand -6.64088 16.2691
rfingers 7.12502
rthumb 19.2162 -12.8015
lclavicle 1.35174e-014 -4.13472e-014
lhumerus -22.4438 -32.8113 46.5599
lradius 102.127
lwrist 5.16737
lhand -34.7681 7.88503
lfingers 7.12502
lthumb -7.92091 -322.283
rfemur -68.3984 -7.79335 17.7314
rtibia 110.105
rfoot -11.6299 4.62837
rtoes 24.0292
lfemur -67.4845 23.4997 1.42499
ltibia 105.658
lfoot -4.61677 -18.2717
ltoes -15.8743
1140
root 17.7166 10.2263 1.69172 -364.643 -79.2349 339.812
lowerback 35.617 0.312924 -12.5345
upperback 17.486 -5.90794 -2.17587
thorax 2.39525 -4.83349 5.76802
lowerneck 7.14393 -16.7602 -15.703
upperneck 16.97 -26.4326 15.3838
head 8.30962 -13.2796 5.30264
rclavicle 1.90833e-014 0
rhumerus -59.9906 -42.8385 -14.5985
rradius 140.194
rwrist -40.0589
rhand -12.4494 14.9756
rfingers 7.12502
rthumb 13.6239 -14.5585
lclavicle 1.90833e-014 0
lhumerus -22.4816 -32.9746 46.4049
lradius 102.381
lwrist 5.46003
lhand -35.2312 7.86976
lfingers 7.12502
lthumb -8.3679 -322.316
rfemur -68.3548 -7.87906 17.7187
rtibia 110.03
rfoot -11.5623 4.84188
rtoes 24.9301
lfemur -67.437 23.4336 1.40876
ltibia 105.611
lfoot -4.24294 -18.0856
ltoes -13.9284
1141
root 17.7208 10.2344 1.6948 -365.089 -79.2089 340.244
lowerback 35.6942 0.349387 -12.7217
upperback 17.5378 -5.94155 -2.12469
thorax 2.45999 -4.88052 5.92023
lowerneck 7.1896 -16.6289 -16.3038
upperneck 16.7976 -26.3203 15.781
head 8.36628 -13.2448 5.51971
rclavicle 4.85035e-014 6.67916e-014
rhumerus -59.966 -42.4214 -14.9062
rradius 139.701
rwrist -39.8521
rhand -19.0972 12.6756
rfingers 7.12502
rthumb 7.21135 -17.1815
lclavicle 4.85035e-014 6.67916e-014
lhumerus -22.5863 -32.7719 46.4974
lradius 102.55
lwrist 5.41015
lhand -35.3255 8.01218
lfingers 7.12502
lthumb -8.45886 -322.177
rfemur -68.2868 -7.97929 17.6772
rtibia 109.969
rfoot -11.6377 4.61467
rtoes 22.8909
lfemur -67.3764 23.2882 1.29142
ltibia 105.563
lfoot -3.67701 -17.8224
ltoes -10.858
1142
root 17.7259 10.2369 1.69641 -364.359 -79.3481 339.465
lowerback 35.8777 0.378715 -12.7219
upperback 17.551 -5.94997 -2.15219
thorax 2.41146 -4.88785 5.89903
lowerneck 7.16751 -16.554 -16.479
upperneck 16.714 -26.2137 15.8701
head 8.35985 -13.1992 5.58454
rclavicle -4.53229e-014 9.54166e-015
rhumerus -59.8873 -41.7749 -15.9186
rradius 139.262
rwrist -39.3827
rhand -22.8038 13.8592
rfingers 7.12502
rthumb 3.63258 -16.0896
lclavicle -4.53229e-014 9.54166e-015
lhumerus -22.7404 -32.5629 46.3429
lradius 102.683
lwrist 5.29099
lhand -35.4985 7.59884
lfingers 7.12502
lthumb -8.62589 -322.597
rfemur -68.2319 -7.76732 17.8888
rtibia 109.9
rfoot -11.5315 4.27662
rtoes 21.0675
lfemur -67.2942 23.4677 1.48389
ltibia 105.546
lfoot -3.37282 -17.7473
ltoes -8.6302
1143
root 17.7326 10.239 1.70363 -362.828 -79.3556 338.009
lowerback 36.0674 0.251197 -12.4874
upperback 17.5105 -6.06994 -2.23954
thorax 2.28486 -4.91539 5.73472
lowerneck 6.86441 -16.5269 -16.289
upperneck 16.9776 -26.1103 15.5616
head 8.40961 -13.1302 5.44856
rclavicle -8.74653e-015 3.18055e-014
rhumerus -59.5068 -41.2411 -17.55
rradius 138.597
rwrist -38.461
rhand -25.8043 16.7005
rfingers 7.12502
rthumb 0.734731 -13.278
lclavicle -8.74653e-015 3.18055e-014
lhumerus -22.9517 -32.4792 46.0477
lradius 102.948
lwrist 5.38903
lhand -35.6063 8.12877
lfingers 7.12502
lthumb -8.7299 -322.072
rfemur -68.2778 -7.74465 18.211
rtibia 109.796
rfoot -11.4423 4.08541
rtoes 19.3671
lfemur -67.474 23.4342 1.74768
ltibia 105.556
lfoot -1.88088 -16.5784
ltoes 13.0886
1144
root 17.7391 10.2447 1.70894 -363.27 -79.2144 338.629
lowerback 36.1319 0.154941 -12.5451
upperback 17.4694 -6.21582 -2.3434
thorax 2.23882 -4.97667 5.6973
lowerneck 6.57953 -16.4962 -16.1795
upperneck 17.2408 -26.0159 15.2977
head 8.47642 -13.0686 5.33597
rclavicle -6.36111e-014 -1.43125e-014
rhumerus -59.0137 -40.5949 -19.236
rradius 137.687
rwrist -37.4304
rhand -29.3848 18.2331
rfingers 7.12502
rthumb -2.72334 -11.7293
lclavicle -6.36111e-014 -1.43125e-014
lhumerus -23.1208 -32.4715 45.8736
lradius 103.286
lwrist 5.51011
lhand -35.7866 9.51653
lfingers 7.12502
lthumb -8.9039 -320.691
rfemur -68.4603 -7.99933 18.0541
rtibia 109.769
rfoot -11.3562 4.30236
rtoes 19.3133
lfemur -67.6932 23.011 1.5358
ltibia 105.529
lfoot -1.86799 -15.8474
ltoes 20.2017
